<svg width="41" height="41" viewBox="0 0 41 41" fill="none" xmlns="http://www.w3.org/2000/svg">
    <path d="M34.1667 21.3335V31.7502C34.1668 33.1337 33.6374 34.4649 32.6872 35.4705C31.737 36.4762 30.438 37.0802 29.0567 37.1585L28.75 37.1668H12.9167C11.5331 37.1669 10.202 36.6376 9.19628 35.6874C8.19061 34.7372 7.58666 33.4382 7.50833 32.0568L7.5 31.7502V21.3335H34.1667Z" fill="url(#paint0_linear_1_1159)"/>
    <path d="M33.7487 12.167C34.8987 12.167 35.832 13.1003 35.832 14.2503V20.0837C35.8321 20.5639 35.6663 21.0295 35.3626 21.4015C35.0589 21.7736 34.6359 22.0293 34.1654 22.1253H7.4987C6.5487 21.932 5.83203 21.092 5.83203 20.0837V14.2503C5.83203 13.1003 6.76536 12.167 7.91536 12.167H33.7487Z" fill="url(#paint1_linear_1_1159)"/>
    <path d="M19.582 37.1667V20.5H22.082V37.1667H19.582Z" fill="white"/>
    <path d="M19.582 22.1668V13.8335H22.082V22.1668H19.582Z" fill="white"/>
    <path fill-rule="evenodd" clip-rule="evenodd" d="M16.6662 14.6668C15.7543 14.6668 14.8572 14.4365 14.0581 13.9973C13.2589 13.5582 12.5836 12.9244 12.0946 12.1547C11.6056 11.385 11.3189 10.5044 11.2609 9.59434C11.203 8.68431 11.3757 7.77439 11.7631 6.94891C12.1506 6.12343 12.7401 5.40911 13.4771 4.87216C14.2141 4.33521 15.0748 3.99302 15.9792 3.87729C16.8837 3.76157 17.8028 3.87606 18.6513 4.21016C19.4997 4.54426 20.2501 5.08714 20.8329 5.7885C21.4156 5.08714 22.166 4.54426 23.0145 4.21016C23.8629 3.87606 24.782 3.76157 25.6865 3.87729C26.591 3.99302 27.4516 4.33521 28.1886 4.87216C28.9256 5.40911 29.5152 6.12343 29.9026 6.94891C30.29 7.77439 30.4627 8.68431 30.4048 9.59434C30.3468 10.5044 30.0601 11.385 29.5711 12.1547C29.0822 12.9244 28.4068 13.5582 27.6076 13.9973C26.8085 14.4365 25.9114 14.6668 24.9995 14.6668H16.6662ZM13.7495 9.25016C13.7495 8.47662 14.0568 7.73475 14.6038 7.18777C15.1508 6.64079 15.8926 6.3335 16.6662 6.3335C17.4397 6.3335 18.1816 6.64079 18.7286 7.18777C19.2756 7.73475 19.5829 8.47662 19.5829 9.25016V12.1668H16.6662C15.8926 12.1668 15.1508 11.8595 14.6038 11.3126C14.0568 10.7656 13.7495 10.0237 13.7495 9.25016ZM22.0829 12.1668H24.9995C25.5764 12.1668 26.1403 11.9958 26.6199 11.6753C27.0996 11.3548 27.4734 10.8993 27.6942 10.3663C27.9149 9.83337 27.9727 9.24693 27.8601 8.68115C27.7476 8.11537 27.4698 7.59567 27.0619 7.18777C26.654 6.77987 26.1343 6.50208 25.5685 6.38954C25.0028 6.277 24.4163 6.33476 23.8834 6.55552C23.3504 6.77627 22.8949 7.15011 22.5744 7.62975C22.2539 8.10939 22.0829 8.6733 22.0829 9.25016V12.1668Z" fill="black"/>
    <path fill-rule="evenodd" clip-rule="evenodd" d="M16.6662 14.6668C15.7543 14.6668 14.8572 14.4365 14.0581 13.9973C13.2589 13.5582 12.5836 12.9244 12.0946 12.1547C11.6056 11.385 11.3189 10.5044 11.2609 9.59434C11.203 8.68431 11.3757 7.77439 11.7631 6.94891C12.1506 6.12343 12.7401 5.40911 13.4771 4.87216C14.2141 4.33521 15.0748 3.99302 15.9792 3.87729C16.8837 3.76157 17.8028 3.87606 18.6513 4.21016C19.4997 4.54426 20.2501 5.08714 20.8329 5.7885C21.4156 5.08714 22.166 4.54426 23.0145 4.21016C23.8629 3.87606 24.782 3.76157 25.6865 3.87729C26.591 3.99302 27.4516 4.33521 28.1886 4.87216C28.9256 5.40911 29.5152 6.12343 29.9026 6.94891C30.29 7.77439 30.4627 8.68431 30.4048 9.59434C30.3468 10.5044 30.0601 11.385 29.5711 12.1547C29.0822 12.9244 28.4068 13.5582 27.6076 13.9973C26.8085 14.4365 25.9114 14.6668 24.9995 14.6668H16.6662ZM13.7495 9.25016C13.7495 8.47662 14.0568 7.73475 14.6038 7.18777C15.1508 6.64079 15.8926 6.3335 16.6662 6.3335C17.4397 6.3335 18.1816 6.64079 18.7286 7.18777C19.2756 7.73475 19.5829 8.47662 19.5829 9.25016V12.1668H16.6662C15.8926 12.1668 15.1508 11.8595 14.6038 11.3126C14.0568 10.7656 13.7495 10.0237 13.7495 9.25016ZM22.0829 12.1668H24.9995C25.5764 12.1668 26.1403 11.9958 26.6199 11.6753C27.0996 11.3548 27.4734 10.8993 27.6942 10.3663C27.9149 9.83337 27.9727 9.24693 27.8601 8.68115C27.7476 8.11537 27.4698 7.59567 27.0619 7.18777C26.654 6.77987 26.1343 6.50208 25.5685 6.38954C25.0028 6.277 24.4163 6.33476 23.8834 6.55552C23.3504 6.77627 22.8949 7.15011 22.5744 7.62975C22.2539 8.10939 22.0829 8.6733 22.0829 9.25016V12.1668Z" fill="white"/>
    <defs>
        <linearGradient id="paint0_linear_1_1159" x1="19.1333" y1="43.3885" x2="19.1333" y2="15.1668" gradientUnits="userSpaceOnUse">
            <stop stop-color="#45C6EA"/>
            <stop offset="0.348" stop-color="#57CDED"/>
            <stop offset="1" stop-color="#2A31B5"/>
        </linearGradient>
        <linearGradient id="paint1_linear_1_1159" x1="18.9195" y1="26.0384" x2="18.9195" y2="8.28848" gradientUnits="userSpaceOnUse">
            <stop stop-color="#45C6EA"/>
            <stop offset="0.348" stop-color="#57CDED"/>
            <stop offset="1" stop-color="#2A31B5"/>
        </linearGradient>
    </defs>
</svg>
