<svg width="41" height="41" viewBox="0 0 41 41" fill="none" xmlns="http://www.w3.org/2000/svg">
    <path d="M17.8133 4.14903C19.2687 3.81257 21.2171 3.82038 22.6881 4.18032C23.6271 4.40724 24.2766 4.64198 25.0904 5.04887C26.8979 5.95654 28.6976 7.66237 29.4566 9.19603C29.9495 10.1741 30.4582 12.2242 30.9981 15.3385C31.6319 19.0474 31.718 19.2822 33.4629 22.2243C34.7383 24.3683 35.3878 25.6438 35.7321 26.661C35.9668 27.3496 35.9981 27.5217 35.9981 28.3277C36.006 29.3371 35.8573 29.9631 35.38 30.9099C34.7149 32.2323 33.2751 33.6172 31.7806 34.3684C30.9433 34.7988 27.6804 35.7065 23.6428 36.6533C21.5927 37.1306 21.0371 37.201 19.7773 37.1462C18.6271 37.0915 18.3454 37.0367 14.566 36.1133C10.7475 35.1822 9.1512 34.6892 8.25917 34.1571C6.06042 32.8426 4.71458 31.0194 4.43289 28.9615C4.22162 27.4122 4.76935 25.9255 6.82727 22.4591C8.68957 19.3135 8.80696 19.0161 9.36252 15.7219C9.87895 12.6624 10.4188 10.4089 10.8805 9.36034C11.2796 8.46049 12.4768 7.03638 13.5566 6.17565C14.699 5.26798 16.3188 4.49332 17.8133 4.14903Z" fill="white"/>
    <path d="M12.9129 18.1754C12.4434 18.3241 11.9035 18.7232 11.5044 19.224C11.0193 19.8265 9.91598 22.0957 9.48562 23.3633C9.29 23.9267 9.0396 24.8109 8.91441 25.3195C8.71879 26.1567 8.70314 26.3837 8.69531 27.7295C8.69531 29.404 8.79703 29.9361 9.3213 30.969C10.2524 32.8235 13.1242 34.4667 17.3026 35.5543C19.4622 36.1099 20.8316 36.1255 22.8582 35.6248C26.2151 34.7875 28.852 33.5434 30.2605 32.1427C30.8708 31.5246 31.4029 30.5543 31.6376 29.6075C31.8254 28.8406 31.8254 26.814 31.6376 25.8672C31.0821 23.0894 29.6345 19.8265 28.4921 18.7858C27.7331 18.0894 26.8097 17.8937 25.9021 18.2302C25.6595 18.3241 24.924 18.7623 24.2589 19.2083C22.9521 20.0847 22.0288 20.5698 21.2933 20.7654C20.7064 20.9141 19.7752 20.9141 19.1806 20.7654C18.5154 20.5933 17.0913 19.8734 16.3167 19.31C14.7126 18.1441 13.8832 17.8703 12.9129 18.1754ZM15.2369 22.2678C15.4481 22.3774 16.0506 22.8781 16.5827 23.3711C18.179 24.8656 18.938 25.2882 20.0413 25.296C21.1211 25.296 21.9114 24.9752 23.7737 23.7623C25.4482 22.6825 26.1759 22.393 26.9271 22.5338C27.5061 22.6434 27.9443 22.9251 28.406 23.4963L28.6877 23.8328L28.3747 24.9048C27.5844 27.6121 26.2464 30.789 25.2761 32.2366C24.6579 33.1678 23.4998 34.1146 22.1383 34.8031C20.4403 35.6561 18.9067 35.6717 17.2478 34.8501C15.1508 33.8094 13.6328 31.5167 13.0459 28.4729C12.8894 27.6904 12.5686 24.3023 12.5686 23.4807C12.5686 23.1207 12.5921 23.0738 12.9833 22.706C13.8049 21.9313 14.4074 21.814 15.2369 22.2678Z" fill="url(#paint0_linear_1_1197)"/>
    <path d="M19.3367 26.9862C18.1396 27.0879 17.6622 27.2914 17.0128 27.9878C16.7233 28.2929 16.6372 28.4494 16.5981 28.7389C16.4807 29.498 16.7389 30.3978 17.3101 31.2351C17.764 31.9002 18.3273 32.3853 19.0316 32.7139C19.5245 32.9487 19.6341 32.9722 20.3148 32.9722C21.0113 32.9722 21.0973 32.9565 21.5981 32.6983C22.2319 32.3853 22.9362 31.7671 23.2883 31.2116C23.8673 30.3117 24.016 29.0206 23.6326 28.246C23.1318 27.2444 21.6138 26.7984 19.3367 26.9862Z" fill="url(#paint1_linear_1_1197)"/>
    <defs>
        <linearGradient id="paint0_linear_1_1197" x1="8.69531" y1="24.8322" x2="32.3176" y2="24.8766" gradientUnits="userSpaceOnUse">
            <stop stop-color="#01D9FF"/>
            <stop offset="1" stop-color="#0051FF"/>
        </linearGradient>
        <linearGradient id="paint1_linear_1_1197" x1="16.5703" y1="29.2214" x2="24.0147" y2="29.2346" gradientUnits="userSpaceOnUse">
            <stop stop-color="#01D9FF"/>
            <stop offset="1" stop-color="#0051FF"/>
        </linearGradient>
    </defs>
</svg>
