<svg width="41" height="41" viewBox="0 0 41 41" fill="none" xmlns="http://www.w3.org/2000/svg">
    <g clip-path="url(#clip0_1_1169)">
        <path d="M33.8789 28.6165L36.483 28.6004L36.5343 22.9565L38.1807 22.9822C38.1807 22.9822 38.1295 29.0201 38.1295 29.4365C38.1295 29.8561 37.8668 30.2725 37.5016 30.3237C37.1365 30.375 34.2601 30.375 34.2601 30.375L33.8789 28.6165Z" fill="#9A9A9A"/>
        <path d="M35.0053 21.1626C34.9669 22.431 35.726 23.6674 37.4269 23.6514C39.1277 23.6354 39.7171 22.6072 39.7523 21.342C39.7844 20.2017 39.0637 18.7891 37.3468 18.8371C35.7933 18.882 35.0373 20.1056 35.0053 21.1626Z" fill="#00AFD7"/>
        <path d="M35.8408 21.5025C36.4333 21.7587 36.459 21.0765 36.7825 20.6248C37.1092 20.17 37.6537 19.9938 37.3494 19.6254C37.1604 19.398 36.539 19.1834 35.9304 19.9714C35.514 20.5063 35.3411 21.2847 35.8408 21.5025Z" fill="white"/>
        <path d="M2.04515 31.6304C2.04515 31.6304 2.04515 18.3086 2.17648 16.0376C2.30781 13.7666 4.31617 7.607 11.8723 5.11817C19.4285 2.62934 26.533 5.40325 29.339 7.82801C34.4928 12.2836 34.4063 16.4316 34.4063 16.4316L34.4512 31.2813C34.4512 31.2813 35.4601 32.585 35.4601 32.9341C35.4601 33.2832 35.4537 34.0744 35.4537 34.0744L0.994527 34.1641C0.994527 34.1641 0.962496 33.2352 1.13546 32.8412C1.30843 32.4472 2.04515 31.6304 2.04515 31.6304Z" fill="#CACACA"/>
        <path d="M17.9005 0.995605C16.3405 0.995605 15.3444 2.03021 15.0337 2.80857C14.7646 3.48764 14.7422 4.38771 14.7422 4.38771C14.7422 4.38771 15.5654 4.56068 17.9581 4.56068C20.3509 4.56068 20.9819 4.33326 20.9819 4.33326C20.9819 4.33326 21.094 3.36592 20.7288 2.69967C20.3124 1.93732 19.5341 0.995605 17.9005 0.995605Z" fill="#00AFD7"/>
        <path d="M15.3272 3.60339C15.7372 4.09667 16.5861 3.818 17.3484 3.2094C17.9794 2.70331 18.6841 1.74878 18.3125 1.42847C17.7776 0.970418 16.8647 1.27792 16.0608 1.90253C15.5611 2.29331 14.9621 3.16776 15.3272 3.60339Z" fill="#DBFFFF"/>
        <path d="M15.7571 3.22205C16.0101 3.42385 16.3625 3.05869 16.8397 2.6583C17.2433 2.32197 17.8455 1.97283 17.6117 1.68776C17.3747 1.39947 16.7436 1.66213 16.2888 2.02729C15.8852 2.3444 15.3631 2.90815 15.7571 3.22205Z" fill="#FFFDFD"/>
        <path d="M1.07219 33.1358C0.915238 33.4113 0.83516 37.9725 1.21313 38.2576C1.5911 38.5427 8.80133 38.3057 18.3306 38.3057C27.8599 38.3057 34.8299 38.2576 35.1631 37.8316C35.6403 37.2166 35.6179 33.1038 35.4738 32.8668C35.1983 32.4055 26.5787 32.8059 18.2826 32.8539C9.74625 32.8988 1.31883 32.7002 1.07219 33.1358Z" fill="#9A9A9A"/>
        <path d="M2.87239 34.1801C2.53927 34.321 2.49442 36.9316 2.87239 37.0245C3.33364 37.1398 13.7374 37.0533 18.1 37.0533C22.4627 37.0533 33.2668 37.2135 33.6929 36.8355C34.1189 36.4575 34.0804 34.3915 33.7954 34.0584C33.5103 33.7253 22.3602 33.9911 18.1865 33.9911C14.0129 33.9911 3.55466 33.8854 2.87239 34.1801Z" fill="#858585"/>
        <path d="M3.73029 15.9707C3.6342 16.3038 3.58936 30.5737 3.73029 30.6698C3.87123 30.7659 32.5584 30.8588 32.8435 30.5737C33.1286 30.2886 32.9396 16.2077 32.8915 15.9226C32.8435 15.6375 18.1444 15.3076 18.1444 15.3076L3.73029 15.9707Z" fill="#6F7178"/>
        <path d="M4.72001 17.0336C4.66556 17.1809 4.74884 29.6795 4.88337 29.8173C5.0211 29.955 31.796 29.7628 31.9338 29.6539C32.0715 29.545 32.0427 17.0496 31.9338 16.9535C31.8249 16.8542 4.77446 16.8799 4.72001 17.0336Z" fill="#3A3839"/>
        <path d="M18.3671 5.40025C11.9416 5.34259 8.0114 8.27986 6.22085 10.6566C4.43031 13.0333 3.45015 15.2274 3.72562 15.9706C3.79929 16.1724 8.44062 15.9898 17.8226 16.0282C27.2045 16.0667 32.7331 16.2076 32.8869 15.9225C33.0438 15.6374 32.4032 12.4119 28.915 9.41056C26.1155 6.99541 22.8066 5.43869 18.3671 5.40025Z" fill="white"/>
        <path d="M4.76562 15.048C4.76562 15.048 7.94633 6.1241 18.0682 6.21059C29.1542 6.30668 31.4028 14.9839 31.4028 14.9839L4.76562 15.048Z" fill="#A8A8A8"/>
        <path d="M9.5725 10.6532C7.66023 12.3893 6.82422 14.183 6.82422 14.183C6.82422 14.183 13.9544 14.3304 13.9736 14.2215C13.996 14.0837 9.5725 10.6532 9.5725 10.6532ZM13.9928 8.02341C12.7052 8.43982 11.6065 9.03239 10.6872 9.68903C11.898 10.7909 15.2452 13.347 15.7001 13.6705C16.2414 14.0549 16.4208 14.2631 16.5425 14.1894C16.6418 14.1318 16.3727 13.6257 16.2863 13.4175C16.1357 13.0491 14.4701 9.33669 13.9928 8.02341ZM20.0115 7.58458C19.3516 7.48208 18.5284 7.38599 17.7981 7.39239C16.9077 7.3988 16.3023 7.48849 15.5335 7.64224C15.5335 7.64224 18.0576 13.8851 18.112 14.0357C18.1697 14.1862 18.2978 14.34 18.3683 14.0357C18.4355 13.7346 20.0115 7.58458 20.0115 7.58458ZM22.6348 14.2759C22.6797 14.3752 29.5408 14.3175 29.5408 14.3175C29.5408 14.3175 28.5606 12.4501 26.5042 10.6628C26.5042 10.6596 22.5516 14.0869 22.6348 14.2759ZM25.2902 9.66021C24.246 8.92989 23.0064 8.27646 21.5522 7.85364C21.1454 9.39114 20.2549 13.1164 20.1652 13.5872C20.13 13.7634 20.0051 14.1382 20.0916 14.2086C20.1812 14.2823 20.5048 14.0741 20.7834 13.805C21.1005 13.4975 25.2902 9.66021 25.2902 9.66021Z" fill="white"/>
        <path d="M13.3144 23.37C13.2567 20.3494 14.0319 18.6037 14.429 17.915L7.49748 17.9246C7.49748 17.9246 5.78701 20.0547 5.75819 23.1457C5.72936 26.2368 7.37897 28.9082 7.37897 28.9082L14.397 28.8793C14.0607 28.1746 13.372 26.3681 13.3144 23.37Z" fill="white"/>
        <path d="M22.4757 23.3693C22.5718 20.5794 21.8895 18.6928 21.5308 17.9048L15.1598 17.9144C14.769 18.8465 14.0707 20.8645 14.1284 23.3181C14.1892 25.9927 14.8907 28.1067 15.1822 28.8787L21.7518 28.8531C21.9728 27.9946 22.3796 26.0824 22.4757 23.3693Z" fill="white"/>
        <path d="M29.377 17.8955L22.4102 17.9051C22.8234 18.9333 23.4992 21.0378 23.3711 23.5554C23.2398 26.0891 22.7849 28.043 22.5671 28.847L29.1687 28.8182C29.1687 28.8182 30.8504 26.7778 31.0009 23.5971C31.1483 20.4164 29.377 17.8955 29.377 17.8955Z" fill="white"/>
        <path d="M8.85547 28.908L12.0234 28.892C12.0234 28.892 11.7799 28.0015 10.5755 28.0336C9.34555 28.072 8.85547 28.908 8.85547 28.908Z" fill="#00AFD7"/>
        <path d="M17.3242 28.8727L19.7522 28.8599C19.7522 28.8599 19.7298 28.1263 18.5414 28.1423C17.5164 28.1552 17.3659 28.7894 17.3242 28.8727Z" fill="#00AFD7"/>
        <path d="M25.1553 28.8406L27.9644 28.8245C27.9644 28.8245 28.1085 28.0238 27.3846 27.9597C26.7696 27.9052 26.6191 28.4786 26.6191 28.4786C26.6191 28.4786 26.4846 28.0654 25.9496 28.0558C25.3058 28.043 25.1264 28.7445 25.1553 28.8406Z" fill="#00AFD7"/>
        <path d="M24.5781 17.9019L28.2649 17.8955C28.2649 17.8955 28.2873 19.0422 26.8491 19.0711C24.7991 19.1127 24.5781 17.9019 24.5781 17.9019Z" fill="#00AFD7"/>
        <path d="M17.0777 17.9085C17.0777 17.9085 16.8438 18.6996 17.0072 18.8534C17.1994 19.0296 19.7811 19.0648 19.9605 18.847C20.1398 18.626 19.9156 17.9053 19.9156 17.9053L17.0777 17.9085Z" fill="#00AFD7"/>
        <path d="M8.74219 17.918L12.4258 17.9116C12.4258 17.9116 12.461 18.8501 10.805 18.8694C8.92797 18.895 8.74219 17.918 8.74219 17.918Z" fill="#00AFD7"/>
        <path d="M16.5402 20.836C16.4025 20.8456 16.1975 20.2626 15.9508 20.3171C15.7042 20.3715 15.3615 20.4388 15.4319 22.0275C15.5024 23.6163 15.6241 23.7508 15.938 23.738C16.2519 23.7252 16.7324 22.8091 16.7324 22.8091C16.7324 22.8091 17.0687 22.665 17.3026 22.6489C17.5364 22.6361 17.7029 22.8475 17.9912 22.9436C18.2795 23.0397 18.6895 23.0525 18.6895 23.0525C18.6895 23.0525 17.719 23.8725 17.389 24.9264C17.0591 25.9802 17.0463 27.018 17.1296 27.0853C17.2129 27.1525 19.7145 27.1814 19.8106 27.1141C19.9067 27.0468 19.769 24.2153 20.2751 23.328C20.7812 22.4407 21.4634 21.3741 21.4634 21.3741C21.4634 21.3741 21.204 20.6758 20.9862 20.5957C20.7683 20.5125 20.3039 20.8552 19.7273 20.8296C19.154 20.8007 18.4813 20.2306 18.1418 20.1313C17.5652 19.9615 16.9502 20.8071 16.5402 20.836ZM7.89818 20.7687C7.76045 20.7783 7.56826 20.3139 7.31521 20.2978C7.02373 20.2786 6.80912 20.3235 6.7899 21.909C6.77389 23.4657 6.9885 23.786 7.3024 23.7732C7.61631 23.7604 8.09357 22.7867 8.09357 22.7867C8.09357 22.7867 8.34982 22.6265 8.59006 22.7066C8.81107 22.7803 8.98404 22.9244 9.32037 22.9725C9.62146 23.0141 9.961 23.0653 9.961 23.0653C9.961 23.0653 9.08014 23.8565 8.75021 24.9071C8.4235 25.961 8.40748 26.9988 8.49076 27.066C8.57404 27.1333 11.0757 27.1621 11.1718 27.0949C11.2679 27.0276 11.191 24.2921 11.6971 23.4017C12.2032 22.5112 12.8278 21.3517 12.8278 21.3517C12.8278 21.3517 12.5683 20.6534 12.3505 20.5733C12.1327 20.49 11.5626 20.7623 10.9892 20.7335C10.4158 20.7046 9.79123 20.1793 9.43889 20.1281C8.78545 20.032 8.30818 20.7431 7.89818 20.7687ZM25.2591 20.6085C25.1214 20.6182 24.878 20.1281 24.6345 20.1825C24.3879 20.237 24.1188 20.3043 24.1156 21.893C24.1124 23.2223 24.3078 23.5875 24.6217 23.6035C25.1214 23.6259 25.3872 22.745 25.3872 22.745C25.3872 22.745 25.7364 22.6201 25.967 22.6073C26.2008 22.5945 26.3834 22.7162 26.6717 22.8123C26.96 22.9084 27.3155 22.9468 27.3155 22.9468C27.3155 22.9468 26.3962 23.7412 26.0695 24.795C25.7428 25.8489 25.7268 26.8867 25.8101 26.9539C25.8933 27.0212 28.395 27.05 28.4911 26.9828C28.5872 26.9155 28.4654 24.2185 28.9715 23.3312C29.4776 22.4439 30.1567 21.5727 30.1567 21.3805C30.1567 21.1883 29.8364 20.4708 29.6154 20.3875C29.3976 20.3042 28.9876 20.6406 28.4142 20.615C27.8408 20.5861 27.1522 20.0512 26.8126 19.9519C26.2361 19.7821 25.6723 20.5797 25.2591 20.6085Z" fill="#00AFD7"/>
    </g>
    <defs>
        <clipPath id="clip0_1_1169">
            <rect width="41" height="40" fill="white" transform="translate(0 0.5)"/>
        </clipPath>
    </defs>
</svg>
